<?xml version="1.0" standalone="no"?>
<!DOCTYPE svg PUBLIC "-//W3C//DTD SVG 20010904//EN"
 "http://www.w3.org/TR/2001/REC-SVG-20010904/DTD/svg10.dtd">
<svg version="1.0" xmlns="http://www.w3.org/2000/svg"
 width="756.000000pt" height="330.000000pt" viewBox="0 0 756.000000 330.000000"
 preserveAspectRatio="xMidYMid meet">

<g transform="translate(0.000000,330.000000) scale(0.100000,-0.100000)"
fill="#000000" stroke="none">
<path d="M3980 2727 c0 -5 18 -76 41 -159 25 -90 38 -153 32 -159 -5 -5 -61
-23 -124 -40 -62 -18 -118 -35 -122 -39 -5 -4 42 -24 103 -45 61 -21 113 -42
116 -47 3 -5 -34 -77 -82 -161 -48 -84 -99 -172 -113 -197 l-25 -44 34 24 c19
14 104 80 188 147 135 108 155 122 171 111 10 -7 78 -69 152 -138 125 -117
204 -189 273 -250 l29 -25 -13 25 c-11 21 -61 101 -267 429 -11 17 -12 25 -3
31 6 4 75 15 153 25 78 10 146 20 150 22 7 4 -152 79 -261 123 -36 15 -37 36
-3 117 18 41 30 77 28 80 -3 2 -46 -16 -96 -41 -50 -25 -95 -46 -101 -46 -6 0
-46 37 -89 83 -42 45 -98 105 -124 132 -25 28 -47 46 -47 42z"/>
<path d="M1207 2203 c-4 -3 -7 -300 -7 -660 l0 -653 270 0 271 0 -3 83 -3 82
-167 3 -168 2 0 490 0 490 168 2 167 3 3 83 3 82 -264 0 c-145 0 -267 -3 -270
-7z"/>
<path d="M4162 1980 l-22 -21 0 -449 0 -450 -170 0 -170 0 0 -85 0 -85 271 0
271 0 -4 491 -3 491 -68 64 c-37 35 -71 64 -75 64 -5 0 -18 -9 -30 -20z"/>
<path d="M1773 1930 c-80 -17 -129 -55 -158 -122 -37 -89 -11 -150 119 -279
100 -100 111 -122 76 -154 -26 -23 -119 -24 -174 -1 -21 9 -42 16 -47 16 -10
0 -12 -113 -3 -147 5 -17 18 -23 68 -32 230 -40 376 35 376 195 0 69 -23 106
-125 199 -51 47 -95 95 -98 106 -4 14 2 29 18 45 29 29 89 32 155 9 24 -8 45
-14 46 -12 2 2 1 40 -3 84 l-6 81 -36 6 c-77 12 -168 15 -208 6z"/>
<path d="M2394 1926 c-210 -48 -326 -221 -295 -441 17 -121 77 -200 190 -253
61 -28 194 -40 291 -25 l55 8 14 78 c7 43 11 81 8 84 -4 3 -26 0 -51 -6 -25
-6 -75 -11 -113 -11 -84 0 -137 27 -171 85 -19 34 -22 51 -20 117 3 66 7 82
33 120 55 79 155 109 288 84 l47 -8 0 80 0 79 -37 6 c-92 15 -181 16 -239 3z"/>
<path d="M2766 1828 c-3 -51 -10 -202 -16 -334 -6 -133 -14 -251 -17 -263 l-5
-21 266 0 266 0 0 64 c0 35 3 72 6 80 6 15 -10 16 -157 14 l-164 -3 3 59 c1
33 4 62 7 64 2 2 61 6 132 8 l128 3 7 43 c3 24 7 58 7 76 l1 32 -135 0 -135 0
0 60 0 60 159 0 159 0 6 31 c3 17 6 51 6 75 l0 44 -259 0 -259 0 -6 -92z"/>
<path d="M3371 1614 c-7 -169 -15 -328 -18 -355 l-6 -49 90 0 90 0 6 122 c4
66 7 158 8 202 1 149 -6 157 204 -246 l40 -78 118 0 c105 0 117 2 117 18 0 9
7 163 15 341 9 178 14 325 12 327 -2 2 -159 -115 -175 -131 -2 -2 -7 -70 -11
-152 l-7 -148 -114 228 -115 227 -120 0 -121 0 -13 -306z"/>
<path d="M4890 1838 c0 -139 -19 -361 -35 -403 -25 -68 -102 -95 -165 -58 -40
23 -50 52 -50 143 l0 78 -102 93 -103 94 -3 -193 c-3 -226 4 -261 58 -313 60
-57 123 -74 265 -73 100 1 128 5 169 23 132 59 144 84 162 369 7 119 13 241
14 270 l0 52 -105 0 -105 0 0 -82z"/>
<path d="M5200 1873 c0 -54 -37 -543 -46 -615 l-7 -48 81 0 81 0 5 33 c3 17 8
93 11 167 7 166 16 282 22 276 6 -6 25 -91 62 -276 17 -85 34 -165 36 -178 5
-22 9 -23 92 -20 l87 3 33 110 c18 61 49 166 69 235 20 69 41 130 46 135 9 10
4 -287 -8 -422 l-6 -63 87 0 c60 0 87 4 89 13 3 6 7 166 10 355 l7 343 -132
-3 -132 -3 -58 -185 c-33 -102 -59 -192 -59 -200 0 -8 -4 -21 -9 -29 -6 -9
-13 11 -21 60 -7 41 -25 127 -41 192 -16 65 -29 129 -29 143 l0 24 -135 0
-135 0 0 -47z"/>
</g>
</svg>
